<svg width="150" height="150" viewBox="0 0 200 200" xmlns="http://www.w3.org/2000/svg">
  <style>
    path { fill: #444; }
    @media (prefers-color-scheme: dark) {
      path { fill: #ffffff; }
    }
  </style>
 <g>
  <title>Layer 1</title>
  <path stroke="null" id="svg_5" fill-rule="nonzero" d="m142.634928,39.093738l-107.10547,0c-0.875,0 -1.75,0.11719 -2.59765,0.34375c-0.84375,0.22656 -1.66016,0.5625 -2.41797,1.00391c-0.76172,0.4375 -1.46094,0.97656 -2.07813,1.59375c-0.62109,0.62109 -1.15625,1.32031 -1.59765,2.07812c-0.4375,0.76172 -0.77735,1.57422 -1.00391,2.42188c-0.22656,0.84765 -0.34375,1.72265 -0.34375,2.59765l0,113.79688c0,0.8789 0.11719,1.75 0.34375,2.59765c0.22656,0.84766 0.56641,1.66016 1.00391,2.42188c0.4414,0.75781 0.97656,1.45703 1.59765,2.07812c0.61719,0.6211 1.31641,1.15625 2.07813,1.59375c0.75781,0.44141 1.57422,0.77735 2.41797,1.00391c0.84765,0.23047 1.72265,0.34375 2.59765,0.34375l107.10547,0c0.29297,0.00391 0.58203,-0.03516 0.86719,-0.11328c0.28125,-0.07422 0.55078,-0.1875 0.80469,-0.33203c0.2539,-0.14844 0.48828,-0.32422 0.69531,-0.53125c0.20703,-0.20703 0.38672,-0.44141 0.53125,-0.69531c0.14453,-0.25391 0.25781,-0.52344 0.33203,-0.8086c0.07813,-0.28125 0.11719,-0.57031 0.11719,-0.86328l0,-127.1875c0,-0.28906 -0.03906,-0.58203 -0.11719,-0.86328c-0.07422,-0.28516 -0.1875,-0.55469 -0.33203,-0.80859c-0.14453,-0.25391 -0.32422,-0.48829 -0.53125,-0.69532c-0.20703,-0.20703 -0.44141,-0.38281 -0.69531,-0.53125c-0.25391,-0.14453 -0.52344,-0.25781 -0.80469,-0.33203c-0.28516,-0.07812 -0.57422,-0.11328 -0.86719,-0.11328zm-110.44922,123.83594l0,-113.79688c0,-0.29297 0.03907,-0.58203 0.11328,-0.86718c0.07813,-0.28125 0.1875,-0.55079 0.33594,-0.80469c0.14453,-0.25391 0.32422,-0.48828 0.53125,-0.69141c0.20703,-0.20703 0.4375,-0.38672 0.69141,-0.53515c0.2539,-0.14454 0.52734,-0.25782 0.80859,-0.33204c0.28125,-0.07812 0.57422,-0.11718 0.86328,-0.11718l3.34766,0l0,120.49218l-3.34766,0c-0.28906,0 -0.58203,-0.03906 -0.86328,-0.11718c-0.28125,-0.07422 -0.55469,-0.1875 -0.80859,-0.33203c-0.25391,-0.14844 -0.48438,-0.32813 -0.69141,-0.53125c-0.20703,-0.20704 -0.38672,-0.44141 -0.53125,-0.69532c-0.14844,-0.2539 -0.25781,-0.52343 -0.33594,-0.80468c-0.07421,-0.28516 -0.11328,-0.57422 -0.11328,-0.86719zm107.10157,3.34765l-93.71485,0l0,-120.49218l93.71485,0l0,120.49218zm0,0"/>
  <path stroke="null" id="svg_6" fill-rule="nonzero" d="m105.818528,105.691398l0,37.15625c0,0.58984 0.15234,1.16406 0.44921,1.67578c0.29297,0.50781 0.71485,0.92969 1.22266,1.22265c0.50781,0.29297 1.08594,0.44922 1.67578,0.44922c0.58594,0 1.16406,-0.15625 1.67188,-0.44922c0.50781,-0.29296 0.92968,-0.71484 1.22656,-1.22265c0.29297,-0.51172 0.44531,-1.08594 0.44531,-1.67578l0,-37.15625c1.25,-0.25391 2.46485,-0.65235 3.6211,-1.1836c1.16015,-0.53125 2.2539,-1.19531 3.26171,-1.97265c1.00782,-0.78125 1.92188,-1.67188 2.72657,-2.66016c0.80859,-0.98437 1.5,-2.0625 2.0625,-3.20703c0.55859,-1.14063 0.98828,-2.34375 1.28125,-3.58594c0.28906,-1.24219 0.43359,-2.51172 0.4375,-3.78515l0,-16.73438c0,-0.58984 -0.15625,-1.16406 -0.44922,-1.67578c-0.29297,-0.50781 -0.71875,-0.92969 -1.22656,-1.22266c-0.50782,-0.29297 -1.08594,-0.44922 -1.67188,-0.44922c-0.58984,0 -1.16406,0.15625 -1.67578,0.44922c-0.50781,0.29297 -0.92969,0.71485 -1.22266,1.22266c-0.29297,0.51172 -0.44922,1.08594 -0.44922,1.67578l0,16.73438c-0.0039,0.68359 -0.07421,1.36718 -0.21484,2.03906c-0.14062,0.66797 -0.35156,1.32422 -0.625,1.95312c-0.27734,0.625 -0.61328,1.22266 -1.01172,1.78125c-0.39844,0.5586 -0.85156,1.07422 -1.35156,1.54297c-0.50391,0.46485 -1.05078,0.87891 -1.63672,1.23438c-0.58594,0.35156 -1.20703,0.64453 -1.85547,0.875l0,-26.16016c0,-0.58984 -0.15234,-1.16406 -0.44531,-1.67578c-0.29688,-0.50781 -0.71875,-0.92969 -1.22656,-1.22266c-0.50782,-0.29297 -1.08594,-0.44922 -1.67188,-0.44922c-0.58984,0 -1.16797,0.15625 -1.67578,0.44922c-0.50781,0.29297 -0.92969,0.71485 -1.22266,1.22266c-0.29687,0.51172 -0.44921,1.08594 -0.44921,1.67578l0,26.16016c-0.64844,-0.23047 -1.26954,-0.52344 -1.85547,-0.875c-0.58594,-0.35547 -1.13282,-0.76953 -1.63672,-1.23438c-0.5,-0.46875 -0.95313,-0.98437 -1.35156,-1.54297c-0.39454,-0.55859 -0.73438,-1.15625 -1.00782,-1.78125c-0.27734,-0.6289 -0.48437,-1.28515 -0.6289,-1.95312c-0.14063,-0.67188 -0.21094,-1.35547 -0.21485,-2.03906l0,-16.73438c0,-0.58984 -0.15625,-1.16406 -0.44922,-1.67578c-0.29296,-0.50781 -0.71484,-0.92969 -1.22265,-1.22266c-0.51172,-0.29297 -1.08594,-0.44922 -1.67578,-0.44922c-0.58594,0 -1.16407,0.15625 -1.67188,0.44922c-0.50781,0.29297 -0.93359,0.71485 -1.22656,1.22266c-0.29297,0.51172 -0.44922,1.08594 -0.44922,1.67578l0,16.73438c0.00391,1.27343 0.14844,2.54296 0.44141,3.78515c0.28906,1.24219 0.71875,2.44531 1.28125,3.58594c0.55859,1.14453 1.25,2.22266 2.05859,3.20703c0.80469,0.98828 1.71875,1.87891 2.72656,2.66016c1.00782,0.77734 2.10157,1.4414 3.26172,1.97265c1.15625,0.53125 2.3711,0.92969 3.6211,1.1836zm0,0"/>
  <path stroke="null" id="svg_7" fill-rule="nonzero" d="m69.002118,105.535148l0,37.3125c0,0.58984 0.15234,1.16406 0.44531,1.67578c0.29688,0.50781 0.71875,0.92969 1.22656,1.22265c0.50782,0.29297 1.08594,0.44922 1.67579,0.44922c0.58593,0 1.16406,-0.15625 1.67187,-0.44922c0.50781,-0.29296 0.92969,-0.71484 1.22656,-1.22265c0.29297,-0.51172 0.44532,-1.08594 0.44532,-1.67578l0,-37.3125c5.16406,-1.375 10.04296,-6.08594 10.04296,-16.23828c0,-9.57813 -4.76562,-23.42969 -13.38671,-23.42969c-8.625,0 -13.39063,13.85156 -13.39063,23.42969c0,10.15234 4.87891,14.86328 10.04297,16.23828zm3.34766,-32.97266c2.26171,0 6.6914,7.57422 6.6914,16.73438c0,3.75 -0.87109,10.03906 -6.6914,10.03906c-5.82422,0 -6.69532,-6.28906 -6.69532,-10.03906c0,-9.16016 4.42969,-16.73438 6.69532,-16.73438zm0,0"/>
 </g>
</svg>