<svg width="900" height="200" xmlns="http://www.w3.org/2000/svg">

 <g>
  <title>background</title>
  <rect fill="none" id="canvas_background" height="202" width="902" y="-1" x="-1"/>
 </g>
 <g>
  <title>Layer 1</title>
  <path stroke="null" id="svg_3" fill-rule="nonzero" fill="#444" d="m312.701338,147.308578c-1.47656,-3.47656 -1.61328,-6.8164 -1.61719,-11.36328l-0.01562,-14.4375c-0.00782,-9.75781 -2.42188,-16.70703 -9.77735,-19.77343l0,-0.26954c6.54688,-3.08203 9.61719,-9.23437 9.60938,-18.85937l-0.00782,-7.35156c-0.01562,-14.4375 -6.57031,-21.51563 -21.8125,-21.5l-22.1914,0.01953l0.08984,93.57812l14.70703,-0.01562l-0.03906,-38.09766l5.08203,-0.0039c6.6836,-0.00782 9.62891,3.19921 9.63672,11.88671l0.01563,14.70704c0.0039,7.61718 0.54296,9.08984 1.34765,11.49218l14.97266,-0.01172zm-24.00781,-80.1875c5.21484,-0.0039 7.48828,2.9336 7.49609,9.61719l0.00781,9.22656c0.00781,7.48438 -3.33203,9.89454 -8.8125,9.89844l-5.75,0.00781l-0.02734,-28.74218l7.08594,-0.00782zm46.65625,-0.04296l25.39843,-0.02735l-0.01172,-13.36719l-40.10546,0.03907l0.08984,93.57812l40.10547,-0.03906l-0.01563,-13.36719l-25.39843,0.02344l-0.02735,-27.40625l20.1875,-0.01953l-0.01172,-13.36719l-20.1875,0.01953l-0.02343,-26.0664zm63.27343,45.2539l0.01172,13.3711c0.00781,6.68359 -2.92969,9.08984 -7.60937,9.09765c-4.67969,0.00391 -7.6211,-2.39844 -7.62891,-9.08594l-0.05078,-50.53125c-0.00391,-6.68359 2.93359,-9.22656 7.61328,-9.23046c4.67969,-0.00391 7.62109,2.53125 7.62891,9.21484l0.00781,10.02734l13.90234,-0.01172l-0.00781,-9.08984c-0.01172,-14.97266 -7.50781,-23.52344 -21.94531,-23.50781c-14.4375,0.01172 -21.91406,8.57812 -21.90235,23.54687l0.04688,48.66016c0.01562,14.97266 7.51172,23.52344 21.94922,23.50781c14.4375,-0.01172 21.91406,-8.57422 21.89844,-23.54687l-0.01172,-12.4336l-13.90235,0.01172zm22.89453,34.8711l14.70313,-0.01563l-0.08984,-93.57812l-14.70313,0.01562l0.08984,93.57813zm46.96485,-93.625l-21.65625,0.02343l0.08984,93.57813l14.70703,-0.01563l-0.03515,-35.16015l6.94922,-0.00391c14.70703,-0.01562 21.91796,-8.17578 21.90234,-23.14844l-0.01172,-12.16797c-0.01172,-14.96875 -7.24219,-23.11718 -21.94531,-23.10546zm0.01172,13.37109c4.67968,-0.00781 7.22265,2.12891 7.22656,8.81641l0.01562,14.03515c0.00782,6.6836 -2.53125,8.82422 -7.21093,8.82813l-6.94922,0.00781l-0.03125,-31.68359l6.94922,-0.00391zm43.44922,-0.04297l25.39843,-0.02344l-0.01172,-13.37109l-40.10546,0.03906l0.08984,93.57813l40.10547,-0.03907l-0.01563,-13.36718l-25.39843,0.02343l-0.02735,-27.40234l20.1875,-0.01953l-0.01172,-13.37109l-20.1875,0.01953l-0.02343,-26.06641zm0,0"/>
  <path stroke="null" id="svg_4" fill-rule="nonzero" fill="#444" d="m565.826338,75.945298c0.00781,10.69532 3.89453,18.44141 16.20312,29.25782c9.63282,8.41406 12.57813,13.49218 12.58594,20.30859c0.00391,6.68359 -2.93359,9.09375 -7.61328,9.09766c-4.67969,0.0039 -7.62109,-2.39844 -7.62891,-9.08204l-0.0039,-6.68359l-13.90625,0.01172l0.00781,5.75c0.01562,14.97266 7.50781,23.51953 21.94531,23.50781c14.4375,-0.01562 21.91797,-8.57812 21.90235,-23.55078c-0.01172,-10.69531 -3.89454,-18.44531 -16.20313,-29.26172c-9.63281,-8.41015 -12.57812,-13.48828 -12.58594,-20.30469c-0.00781,-6.6875 2.66407,-9.22656 7.34375,-9.23437c4.67969,-0.00391 7.35547,2.53516 7.35938,9.21875l0.0039,3.875l13.90235,-0.01172l0,-2.94141c-0.01563,-14.97265 -7.375,-23.51953 -21.67969,-23.50781c-14.30469,0.01563 -21.64844,8.57813 -21.63281,23.55078zm66.5625,-9.15625l25.39844,-0.02343l-0.01172,-13.36719l-40.10547,0.03906l0.09375,93.57422l40.10156,-0.03906l-0.01172,-13.36719l-25.39844,0.02344l-0.02734,-27.40235l20.1875,-0.01953l-0.01562,-13.36719l-20.1836,0.01954l-0.02734,-26.07032zm67.09765,-13.43359l-21.52343,0.02344l-14.88282,93.58984l13.5,-0.01172l2.52344,-16.98047l18.05078,-0.01953l2.55469,16.97656l14.83984,-0.01562l-15.0625,-93.5625zm-11.61718,16.58984l0.26953,0l6.99609,47.31641l-14.17187,0.01172l6.90625,-47.32813zm79.21484,76.92188c-1.47266,-3.47266 -1.60937,-6.81641 -1.61328,-11.35938l-0.01563,-14.4375c-0.00781,-9.75781 -2.42187,-16.70703 -9.77734,-19.77734l0,-0.26563c6.54688,-3.08203 9.61719,-9.23437 9.60547,-18.85937l-0.00781,-7.35156c-0.01172,-14.4375 -6.57032,-21.51563 -21.8086,-21.50391l-22.1914,0.02344l0.08984,93.57812l14.70703,-0.01562l-0.03906,-38.09766l5.08203,-0.00781c6.68359,-0.00391 9.625,3.19922 9.63672,11.89062l0.01172,14.70313c0.00781,7.62109 0.54297,9.08984 1.34765,11.49609l14.97266,-0.01562zm-24.00781,-80.1836c5.21484,-0.0039 7.49219,2.9336 7.49609,9.61719l0.01172,9.22266c0.00391,7.48828 -3.33594,9.89844 -8.81641,9.90234l-5.74609,0.00391l-0.02734,-28.73828l7.08203,-0.00782zm60.73828,45.25782l0.01172,13.37109c0.00781,6.68359 -2.9336,9.08984 -7.60938,9.09766c-4.67968,0.0039 -7.625,-2.40235 -7.6289,-9.08594l-0.05078,-50.53125c-0.00391,-6.68359 2.93359,-9.22656 7.61328,-9.23047c4.67578,-0.00391 7.62109,2.53125 7.6289,9.21484l0.00782,10.02735l13.90234,-0.01172l-0.00781,-9.08984c-0.01563,-14.97266 -7.50782,-23.52344 -21.94532,-23.50782c-14.4375,0.01172 -21.91796,8.57422 -21.90234,23.54688l0.04688,48.66015c0.01562,14.97266 7.50781,23.52344 21.94531,23.50782c14.4375,-0.01172 21.91797,-8.57813 21.90234,-23.54688l-0.01172,-12.43359l-13.90234,0.01172zm37.55859,-5.25l16.71094,-0.01563l0.03906,40.10547l14.97266,-0.01562l-0.08984,-93.57813l-14.97266,0.01563l0.03906,40.10546l-16.71094,0.01563l-0.03906,-40.10547l-14.70703,0.01563l0.08984,93.57812l14.70704,-0.01562l-0.03907,-40.10547zm0,0"/>
  <path stroke="null" id="svg_5" fill-rule="nonzero" fill="#444" d="m142.634928,39.093738l-107.10547,0c-0.875,0 -1.75,0.11719 -2.59765,0.34375c-0.84375,0.22656 -1.66016,0.5625 -2.41797,1.00391c-0.76172,0.4375 -1.46094,0.97656 -2.07813,1.59375c-0.62109,0.62109 -1.15625,1.32031 -1.59765,2.07812c-0.4375,0.76172 -0.77735,1.57422 -1.00391,2.42188c-0.22656,0.84765 -0.34375,1.72265 -0.34375,2.59765l0,113.79688c0,0.8789 0.11719,1.75 0.34375,2.59765c0.22656,0.84766 0.56641,1.66016 1.00391,2.42188c0.4414,0.75781 0.97656,1.45703 1.59765,2.07812c0.61719,0.6211 1.31641,1.15625 2.07813,1.59375c0.75781,0.44141 1.57422,0.77735 2.41797,1.00391c0.84765,0.23047 1.72265,0.34375 2.59765,0.34375l107.10547,0c0.29297,0.00391 0.58203,-0.03516 0.86719,-0.11328c0.28125,-0.07422 0.55078,-0.1875 0.80469,-0.33203c0.2539,-0.14844 0.48828,-0.32422 0.69531,-0.53125c0.20703,-0.20703 0.38672,-0.44141 0.53125,-0.69531c0.14453,-0.25391 0.25781,-0.52344 0.33203,-0.8086c0.07813,-0.28125 0.11719,-0.57031 0.11719,-0.86328l0,-127.1875c0,-0.28906 -0.03906,-0.58203 -0.11719,-0.86328c-0.07422,-0.28516 -0.1875,-0.55469 -0.33203,-0.80859c-0.14453,-0.25391 -0.32422,-0.48829 -0.53125,-0.69532c-0.20703,-0.20703 -0.44141,-0.38281 -0.69531,-0.53125c-0.25391,-0.14453 -0.52344,-0.25781 -0.80469,-0.33203c-0.28516,-0.07812 -0.57422,-0.11328 -0.86719,-0.11328zm-110.44922,123.83594l0,-113.79688c0,-0.29297 0.03907,-0.58203 0.11328,-0.86718c0.07813,-0.28125 0.1875,-0.55079 0.33594,-0.80469c0.14453,-0.25391 0.32422,-0.48828 0.53125,-0.69141c0.20703,-0.20703 0.4375,-0.38672 0.69141,-0.53515c0.2539,-0.14454 0.52734,-0.25782 0.80859,-0.33204c0.28125,-0.07812 0.57422,-0.11718 0.86328,-0.11718l3.34766,0l0,120.49218l-3.34766,0c-0.28906,0 -0.58203,-0.03906 -0.86328,-0.11718c-0.28125,-0.07422 -0.55469,-0.1875 -0.80859,-0.33203c-0.25391,-0.14844 -0.48438,-0.32813 -0.69141,-0.53125c-0.20703,-0.20704 -0.38672,-0.44141 -0.53125,-0.69532c-0.14844,-0.2539 -0.25781,-0.52343 -0.33594,-0.80468c-0.07421,-0.28516 -0.11328,-0.57422 -0.11328,-0.86719zm107.10157,3.34765l-93.71485,0l0,-120.49218l93.71485,0l0,120.49218zm0,0"/>
  <path stroke="null" id="svg_6" fill-rule="nonzero" fill="#444" d="m105.818528,105.691398l0,37.15625c0,0.58984 0.15234,1.16406 0.44921,1.67578c0.29297,0.50781 0.71485,0.92969 1.22266,1.22265c0.50781,0.29297 1.08594,0.44922 1.67578,0.44922c0.58594,0 1.16406,-0.15625 1.67188,-0.44922c0.50781,-0.29296 0.92968,-0.71484 1.22656,-1.22265c0.29297,-0.51172 0.44531,-1.08594 0.44531,-1.67578l0,-37.15625c1.25,-0.25391 2.46485,-0.65235 3.6211,-1.1836c1.16015,-0.53125 2.2539,-1.19531 3.26171,-1.97265c1.00782,-0.78125 1.92188,-1.67188 2.72657,-2.66016c0.80859,-0.98437 1.5,-2.0625 2.0625,-3.20703c0.55859,-1.14063 0.98828,-2.34375 1.28125,-3.58594c0.28906,-1.24219 0.43359,-2.51172 0.4375,-3.78515l0,-16.73438c0,-0.58984 -0.15625,-1.16406 -0.44922,-1.67578c-0.29297,-0.50781 -0.71875,-0.92969 -1.22656,-1.22266c-0.50782,-0.29297 -1.08594,-0.44922 -1.67188,-0.44922c-0.58984,0 -1.16406,0.15625 -1.67578,0.44922c-0.50781,0.29297 -0.92969,0.71485 -1.22266,1.22266c-0.29297,0.51172 -0.44922,1.08594 -0.44922,1.67578l0,16.73438c-0.0039,0.68359 -0.07421,1.36718 -0.21484,2.03906c-0.14062,0.66797 -0.35156,1.32422 -0.625,1.95312c-0.27734,0.625 -0.61328,1.22266 -1.01172,1.78125c-0.39844,0.5586 -0.85156,1.07422 -1.35156,1.54297c-0.50391,0.46485 -1.05078,0.87891 -1.63672,1.23438c-0.58594,0.35156 -1.20703,0.64453 -1.85547,0.875l0,-26.16016c0,-0.58984 -0.15234,-1.16406 -0.44531,-1.67578c-0.29688,-0.50781 -0.71875,-0.92969 -1.22656,-1.22266c-0.50782,-0.29297 -1.08594,-0.44922 -1.67188,-0.44922c-0.58984,0 -1.16797,0.15625 -1.67578,0.44922c-0.50781,0.29297 -0.92969,0.71485 -1.22266,1.22266c-0.29687,0.51172 -0.44921,1.08594 -0.44921,1.67578l0,26.16016c-0.64844,-0.23047 -1.26954,-0.52344 -1.85547,-0.875c-0.58594,-0.35547 -1.13282,-0.76953 -1.63672,-1.23438c-0.5,-0.46875 -0.95313,-0.98437 -1.35156,-1.54297c-0.39454,-0.55859 -0.73438,-1.15625 -1.00782,-1.78125c-0.27734,-0.6289 -0.48437,-1.28515 -0.6289,-1.95312c-0.14063,-0.67188 -0.21094,-1.35547 -0.21485,-2.03906l0,-16.73438c0,-0.58984 -0.15625,-1.16406 -0.44922,-1.67578c-0.29296,-0.50781 -0.71484,-0.92969 -1.22265,-1.22266c-0.51172,-0.29297 -1.08594,-0.44922 -1.67578,-0.44922c-0.58594,0 -1.16407,0.15625 -1.67188,0.44922c-0.50781,0.29297 -0.93359,0.71485 -1.22656,1.22266c-0.29297,0.51172 -0.44922,1.08594 -0.44922,1.67578l0,16.73438c0.00391,1.27343 0.14844,2.54296 0.44141,3.78515c0.28906,1.24219 0.71875,2.44531 1.28125,3.58594c0.55859,1.14453 1.25,2.22266 2.05859,3.20703c0.80469,0.98828 1.71875,1.87891 2.72656,2.66016c1.00782,0.77734 2.10157,1.4414 3.26172,1.97265c1.15625,0.53125 2.3711,0.92969 3.6211,1.1836zm0,0"/>
  <path stroke="null" id="svg_7" fill-rule="nonzero" fill="#444" d="m69.002118,105.535148l0,37.3125c0,0.58984 0.15234,1.16406 0.44531,1.67578c0.29688,0.50781 0.71875,0.92969 1.22656,1.22265c0.50782,0.29297 1.08594,0.44922 1.67579,0.44922c0.58593,0 1.16406,-0.15625 1.67187,-0.44922c0.50781,-0.29296 0.92969,-0.71484 1.22656,-1.22265c0.29297,-0.51172 0.44532,-1.08594 0.44532,-1.67578l0,-37.3125c5.16406,-1.375 10.04296,-6.08594 10.04296,-16.23828c0,-9.57813 -4.76562,-23.42969 -13.38671,-23.42969c-8.625,0 -13.39063,13.85156 -13.39063,23.42969c0,10.15234 4.87891,14.86328 10.04297,16.23828zm3.34766,-32.97266c2.26171,0 6.6914,7.57422 6.6914,16.73438c0,3.75 -0.87109,10.03906 -6.6914,10.03906c-5.82422,0 -6.69532,-6.28906 -6.69532,-10.03906c0,-9.16016 4.42969,-16.73438 6.69532,-16.73438zm0,0"/>
  <path stroke="null" id="svg_8" fill-rule="nonzero" fill="#444" d="m203.709148,184.941398l0,-169.88282l2.46094,0l0,169.88282l-2.46094,0zm0,0"/>
 </g>
</svg>